<?xml version="1.0" standalone="no"?>
<!DOCTYPE svg PUBLIC "-//W3C//DTD SVG 1.1//EN" "http://www.w3.org/Graphics/SVG/1.1/DTD/svg11.dtd" >
<svg xmlns="http://www.w3.org/2000/svg">
<metadata>
This is a custom SVG webfont generated by Font Squirrel.
Copyright   :  Luc as  de Groot 1994
</metadata>
<defs>
<font id="TheSansItalic" horiz-adv-x="1101" >
<font-face units-per-em="2048" ascent="1638" descent="-410" />
<missing-glyph horiz-adv-x="446" />
<glyph unicode=" "  horiz-adv-x="446" />
<glyph unicode="&#x09;" horiz-adv-x="446" />
<glyph unicode="&#xa0;" horiz-adv-x="446" />
<glyph unicode="!" horiz-adv-x="604" d="M109 98q0 53 36.5 89t90.5 36q51 0 84.5 -33.5t33.5 -83.5q0 -53 -36.5 -88.5t-90.5 -35.5q-51 0 -84.5 33.5t-33.5 82.5zM201 344l180 1104h211l-240 -1104h-151z" />
<glyph unicode="&#x22;" horiz-adv-x="743" d="M242 1042l37 471h192l-94 -471h-135zM584 1042l37 471h192l-94 -471h-135z" />
<glyph unicode="#" horiz-adv-x="1368" d="M53 391l25 131h305l113 381h-289l26 131h299l103 348h153l-100 -348h293l100 348h156l-102 -348h290l-26 -131h-303l-111 -381h287l-27 -131h-299l-117 -391h-153l117 391h-295l-115 -391h-156l117 391h-291zM539 522h292l111 381h-293z" />
<glyph unicode="$" horiz-adv-x="964" d="M74 14l32 174q104 -47 256 -47q131 0 206 64.5t75 148.5q0 59 -31.5 105.5t-80.5 72.5l-104 61q-56 34 -104.5 67.5t-80 93t-31.5 137.5q0 145 103.5 251.5t277.5 127.5l39 215h137l-39 -207q96 -2 199 -25l-31 -161q-106 35 -229 34q-131 0 -198 -57t-67 -143 q0 -61 45.5 -108.5t110 -81.5t128 -71.5t108.5 -106.5t45 -161q0 -145 -107.5 -262t-288.5 -143l-53 -268h-135l49 260q-112 1 -231 30z" />
<glyph unicode="%" horiz-adv-x="1609" d="M166 1014q0 174 107.5 286.5t261.5 112.5q129 0 205.5 -69.5t76.5 -206.5q0 -162 -104.5 -283t-272.5 -121q-129 0 -201.5 69t-72.5 212zM211 51l1112 1379l121 -97l-1112 -1380zM330 1026q0 -160 137 -160q86 0 135 78t49 172q0 84 -31.5 124t-107.5 40q-84 0 -133 -76 t-49 -178zM854 250q0 174 106.5 286.5t260.5 112.5q131 0 206.5 -68.5t75.5 -207.5q0 -160 -103.5 -281t-271.5 -121q-274 0 -274 279zM1018 264q0 -162 135 -162q86 0 136 79t50 171q0 84 -32.5 124t-106.5 40q-84 0 -133 -76t-49 -176z" />
<glyph unicode="&#x26;" horiz-adv-x="1595" d="M96 307q0 166 99.5 286t275.5 243q-123 197 -123 319q0 150 111.5 255.5t288.5 105.5q150 0 223 -67t73 -175q0 -129 -88 -232.5t-251 -222.5q127 -178 362 -413q193 207 233 516h183q-53 -371 -295 -625q92 -88 242 -211l-127 -127q-143 115 -252 215 q-248 -195 -566 -194q-193 0 -291 93t-98 234zM291 352q0 -92 58.5 -154.5t176.5 -62.5q215 0 406 150q-236 240 -375 430q-129 -94 -197.5 -176.5t-68.5 -186.5zM532 1178q0 -92 89 -238q117 80 178 149.5t61 157.5q0 125 -131 125q-88 0 -142.5 -55t-54.5 -139z" />
<glyph unicode="'" horiz-adv-x="401" d="M242 1042l37 471h192l-94 -471h-135z" />
<glyph unicode="(" horiz-adv-x="608" d="M123 266q0 336 131 676t362 627h179q-225 -283 -359.5 -626t-134.5 -662q0 -395 117 -676h-168q-127 305 -127 661z" />
<glyph unicode=")" horiz-adv-x="608" d="M-141 -395q238 299 367.5 638t129.5 654q0 391 -114 672h164q125 -297 124 -662q0 -688 -489 -1302h-182z" />
<glyph unicode="*" horiz-adv-x="749" d="M195 1100l223 90l-187 96l78 117l162 -137l23 233l137 -10l-68 -219l197 129l57 -119l-225 -90l184 -96l-78 -119l-163 139l-21 -233l-137 10l65 219l-190 -129z" />
<glyph unicode="+" horiz-adv-x="1153" d="M55 451v153h432v449h175v-449h436v-153h-436v-451h-175v451h-432z" />
<glyph unicode="," horiz-adv-x="458" d="M-70 -236q156 133 156 233q0 33 -16 62q-17 27 -17 56q0 28 16 57q32 59 99 59q59 0 93 -47q29 -41 29 -101v-18q-5 -73 -80 -176.5t-212 -201.5z" />
<glyph unicode="-" horiz-adv-x="675" d="M96 440v148h484v-148h-484z" />
<glyph unicode="." horiz-adv-x="458" d="M43 106q0 53 38 91.5t91 38.5q51 0 87 -37t36 -88q0 -53 -37 -91t-90 -38q-51 0 -88 36.5t-37 87.5z" />
<glyph unicode="/" horiz-adv-x="839" d="M-4 0l780 1382h182l-778 -1382h-184z" />
<glyph unicode="0" horiz-adv-x="1230" d="M96 367q0 299 183.5 501.5t455.5 202.5q201 0 308.5 -106.5t107.5 -294.5q0 -295 -189.5 -492.5t-457.5 -197.5q-203 0 -305.5 99.5t-102.5 287.5zM281 403q0 -123 64.5 -194.5t189.5 -71.5q174 0 303 148.5t129 357.5q0 125 -65.5 198.5t-196.5 73.5q-182 0 -303 -151.5 t-121 -360.5z" />
<glyph unicode="1" horiz-adv-x="679" d="M135 774v168l320 111h149l-203 -1053h-186l168 872z" />
<glyph unicode="2" horiz-adv-x="966" d="M16 0l27 147l307 228q190 139 257 216t67 171q0 61 -42 107t-130 46q-147 0 -277 -84v168q150 72 324 72q162 0 246 -75.5t84 -192.5q0 -129 -80 -234.5t-252 -228.5l-244 -178l-2 -4q106 8 506 8l-33 -166h-758z" />
<glyph unicode="3" horiz-adv-x="931" d="M-70 -383l41 170q78 -31 160 -31q182 0 298 97.5t116 246.5q0 202 -296 202q-56 0 -122 -7l27 149q221 0 355 85t134 231q0 156 -184 155q-121 0 -248 -63v162q131 53 297 53t250 -71.5t84 -196.5q0 -270 -310 -398l-2 -2q90 -12 152.5 -89t62.5 -183q0 -221 -180 -375.5 t-459 -154.5q-88 0 -176 20z" />
<glyph unicode="4" horiz-adv-x="1097" d="M-31 0v152l721 903h252l-168 -889h230l-33 -166h-230l-75 -393h-181l76 393h-592zM152 164q119 2 444 2l135 715h-4z" />
<glyph unicode="5" horiz-adv-x="921" d="M-49 -393l41 172q55 -16 125 -17q190 0 311 90.5t121 245.5q0 121 -100.5 196t-311.5 75l129 684h619l-35 -181h-447l-67 -352q195 -14 304.5 -116.5t109.5 -262.5q0 -250 -196 -397t-458 -147q-67 0 -145 10z" />
<glyph unicode="6" horiz-adv-x="1173" d="M135 387q0 123 29 258t97.5 279.5t166.5 258t254 187.5t344 74q43 0 96 -4l-30 -160q-74 8 -103 8q-207 0 -355.5 -126t-227.5 -341q-2 -6 -14.5 -34.5t-18.5 -49.5v-2q57 80 152.5 125t199.5 45q176 0 265 -95t89 -239q0 -260 -170 -425.5t-405 -165.5 q-186 0 -277.5 109.5t-91.5 297.5zM328 371q0 -90 46 -163t156 -73q154 0 253.5 111.5t99.5 294.5q0 90 -54.5 148.5t-158.5 58.5q-139 0 -240.5 -112.5t-101.5 -264.5z" />
<glyph unicode="7" horiz-adv-x="921" d="M74 -393q303 715 653 1270q-53 -4 -600 -5l35 181h813l-31 -156q-381 -588 -655 -1290h-215z" />
<glyph unicode="8" horiz-adv-x="1107" d="M82 279q0 150 96 254t264 198q-94 70 -146 144.5t-52 177.5q0 166 136 282.5t349 116.5q176 0 268.5 -77t92.5 -206q0 -137 -88.5 -234t-249.5 -190q223 -154 223 -340t-150.5 -305.5t-363.5 -119.5q-195 0 -287 80t-92 219zM276 301q0 -70 53.5 -118t164.5 -48 q115 0 200.5 68.5t85.5 167.5q0 88 -53 150.5t-152 127.5q-141 -78 -220 -158.5t-79 -189.5zM434 1069q0 -70 47 -125t140 -117q137 78 208.5 146.5t71.5 161.5q0 74 -51 119.5t-148 45.5q-121 0 -194.5 -68.5t-73.5 -162.5z" />
<glyph unicode="9" horiz-adv-x="1167" d="M20 -393l31 168q68 -14 127 -15q403 0 584 441l20 52q12 32 19 46v2q-125 -160 -348 -160q-170 0 -258.5 93.5t-88.5 242.5q0 242 159 417t403 175q197 0 291 -108.5t94 -298.5q0 -121 -27 -254.5t-93.5 -280.5t-165.5 -263t-261 -191.5t-363 -75.5q-62 0 -123 10z M303 506q0 -90 53.5 -145.5t147.5 -55.5q150 0 251 103.5t101 271.5q0 102 -55.5 167.5t-161.5 65.5q-143 0 -239.5 -120.5t-96.5 -286.5z" />
<glyph unicode=":" horiz-adv-x="518" d="M59 104q0 55 38 93.5t91 38.5q51 0 88 -37t37 -88q0 -53 -37.5 -91t-91.5 -38q-51 0 -88 36.5t-37 85.5zM174 705q0 55 38 92t91 37q51 0 88 -36t37 -87q0 -55 -38 -93t-91 -38q-51 0 -88 37t-37 88z" />
<glyph unicode=";" horiz-adv-x="518" d="M-51 -236q158 133 158 234q0 32 -17 61q-18 28 -18 58q0 27 15 55q32 59 101 59q59 0 94 -47q29 -41 29 -101q0 -9 -1 -18q-5 -73 -79.5 -176.5t-212.5 -201.5zM174 705q0 55 38 92t91 37q51 0 88 -36t37 -87q0 -55 -38 -93t-91 -38q-51 0 -88 37t-37 88z" />
<glyph unicode="&#x3c;" horiz-adv-x="1026" d="M115 512l647 590l119 -119l-529 -469l529 -457l-117 -125z" />
<glyph unicode="=" horiz-adv-x="1200" d="M145 268v152h908v-152h-908zM145 618v152h908v-152h-908z" />
<glyph unicode="&#x3e;" horiz-adv-x="1026" d="M143 53l529 469l-529 457l117 125l649 -580l-647 -590z" />
<glyph unicode="?" horiz-adv-x="847" d="M152 98q0 53 36.5 89t90.5 36q51 0 83.5 -33.5t32.5 -83.5q0 -53 -35.5 -88.5t-89.5 -35.5q-51 0 -84.5 33.5t-33.5 82.5zM213 344q-5 37 -5 72q0 76 24 142q36 95 98.5 155.5t127 112t111.5 111.5t47 126q0 90 -95 151.5t-247 77.5l56 166q231 -18 360 -121.5 t129 -246.5q0 -94 -49 -171t-116 -133l-132 -112q-66 -57 -104 -140q-28 -61 -29 -134q0 -27 4 -56h-180z" />
<glyph unicode="@" horiz-adv-x="1705" d="M145 631q0 336 227.5 558t547.5 222q303 0 476 -172t173 -426q0 -229 -109.5 -347t-292.5 -118q-106 0 -155 56q-39 45 -40 106q0 15 3 31h-4q-31 -76 -104.5 -134.5t-164.5 -58.5q-182 0 -182 240q0 203 108.5 338t303.5 135q109 0 227 -27l-63 -354q-8 -42 -8 -75 q0 -123 108 -124q211 0 211 324q0 197 -125 332t-371 135q-254 0 -428 -177t-174 -450q0 -244 142.5 -393.5t398.5 -149.5q158 0 299 48v-144q-135 -45 -322 -45q-317 0 -499.5 184.5t-182.5 485.5zM672 616q0 -131 71 -131q76 0 139.5 98.5t96.5 264.5l16 82 q-33 10 -100 10q-106 0 -164.5 -103.5t-58.5 -220.5z" />
<glyph unicode="A" horiz-adv-x="1239" d="M-74 0l758 1382h205l233 -1382h-198l-50 324h-577l-174 -324h-197zM375 473h477l-82 494q-18 96 -25 204h-4q-41 -96 -100 -206z" />
<glyph unicode="B" horiz-adv-x="1142" d="M80 0l262 1382q295 6 395 7q193 0 290 -70t97 -197q0 -145 -86 -245.5t-213 -147.5v-2q96 -20 151.5 -91t55.5 -163q0 -203 -161.5 -341t-442.5 -138q-49 0 -178 3t-170 3zM293 158q57 -10 168 -11q176 0 275.5 89.5t99.5 220.5q0 186 -295 186q-123 0 -156 -2zM412 786 q39 -2 118 -2q174 0 286 79t112 218q0 76 -54.5 116t-187.5 40q-74 0 -188 -4z" />
<glyph unicode="C" horiz-adv-x="1150" d="M109 459q0 248 87 456.5t272 344t435 135.5q156 0 305 -41l-45 -172q-135 49 -286 49q-117 0 -212.5 -44t-160 -117t-108.5 -170t-63.5 -199.5t-19.5 -211.5q0 -162 80 -249.5t269 -87.5q174 0 321 67l-8 -170q-176 -66 -369 -65q-497 0 -497 475z" />
<glyph unicode="D" horiz-adv-x="1359" d="M80 0l262 1380q33 0 110.5 3t150.5 4.5t134 1.5q305 0 448.5 -133.5t143.5 -368.5q0 -174 -55 -332t-161.5 -286t-282 -202.5t-398.5 -74.5q-82 0 -195.5 4t-156.5 4zM293 164q76 -12 166 -12q174 0 309 64.5t212 171t115 228t38 252.5q0 367 -422 367q-55 0 -215 -6z " />
<glyph unicode="E" horiz-adv-x="1005" d="M80 0l262 1382h696l-30 -155h-512l-84 -439h489l-29 -151h-489l-90 -479h514l-31 -158h-696z" />
<glyph unicode="F" horiz-adv-x="940" d="M80 0l262 1382h690l-31 -155h-505l-84 -449h479l-29 -151h-481l-119 -627h-182z" />
<glyph unicode="G" horiz-adv-x="1363" d="M104 510q0 387 250 639t621 252q207 0 377 -58l-56 -178q-166 74 -344 74q-281 0 -465 -207t-184 -504q0 -160 97.5 -271.5t299.5 -111.5q131 0 265 41l98 519h184l-123 -646q-213 -78 -454 -77q-279 0 -422.5 144t-143.5 384z" />
<glyph unicode="H" horiz-adv-x="1400" d="M80 0l262 1382h182l-110 -585h692l111 585h184l-262 -1382h-185l121 637h-692l-121 -637h-182z" />
<glyph unicode="I" horiz-adv-x="526" d="M80 0l262 1382h182l-262 -1382h-182z" />
<glyph unicode="J" horiz-adv-x="657" d="M-92 2l33 164q59 -23 125 -23q88 0 142 49.5t77 169.5l192 1020h185l-197 -1032q-70 -365 -406 -364q-85 0 -151 16z" />
<glyph unicode="K" horiz-adv-x="1128" d="M78 0l262 1382h184l-125 -651l607 651h239l-659 -684l403 -698h-231l-367 684l-129 -684h-184z" />
<glyph unicode="L" horiz-adv-x="854" d="M80 0l262 1382h182l-229 -1220h483l-30 -162h-668z" />
<glyph unicode="M" horiz-adv-x="1779" d="M4 0l461 1382h223l119 -870q23 -158 22 -274h5q47 117 122 262l459 882h236l-60 -1382h-194l39 788q12 217 24 351h-4q-55 -135 -115 -250l-456 -889h-197l-115 829q-27 195 -26 310h-2q-39 -152 -105 -359l-241 -780h-195z" />
<glyph unicode="N" horiz-adv-x="1396" d="M78 0l262 1382h219l348 -827q51 -119 109 -303l84 493l117 637h182l-264 -1382h-215l-355 846q-68 166 -102 293q-43 -276 -86 -514l-117 -625h-182z" />
<glyph unicode="O" horiz-adv-x="1415" d="M102 483q0 379 228.5 649.5t562.5 270.5q240 0 369 -131t129 -373q0 -391 -231.5 -655t-563.5 -264q-246 0 -370 130.5t-124 372.5zM301 510q0 -170 83 -266.5t239 -96.5q236 0 402.5 213t166.5 519q0 168 -83 263t-247 95q-242 0 -401.5 -214t-159.5 -513z" />
<glyph unicode="P" horiz-adv-x="1048" d="M78 0l262 1382q205 8 334 9q201 0 307 -89.5t106 -244.5q0 -229 -182 -381t-430 -152q-61 0 -113 6l-100 -530h-184zM393 690q41 -8 111 -8q158 0 273.5 100.5t115.5 247.5q0 207 -254 207q-61 0 -143 -4z" />
<glyph unicode="Q" horiz-adv-x="1415" d="M102 483q0 381 227.5 650.5t563.5 269.5q240 0 369 -131t129 -373q0 -391 -231.5 -655t-563.5 -264q-246 0 -370 130.5t-124 372.5zM301 510q0 -170 83 -266.5t239 -96.5q236 0 402.5 213t166.5 519q0 168 -83 263t-247 95q-242 0 -401.5 -214t-159.5 -513zM494 -305 l28 158q46 6 96 5q129 0 284 -38q150 -37 275 -38q53 0 101 7l-31 -160q-72 -11 -140 -11q-45 0 -87 5q-106 12 -174 35t-162 36q-49 7 -99 7q-45 0 -91 -6z" />
<glyph unicode="R" horiz-adv-x="1110" d="M80 0l262 1382q125 8 330 9q410 0 409 -304q0 -190 -140 -310t-359 -142q25 -35 90 -146l286 -489h-227l-342 621h-10l-117 -621h-182zM408 762q45 -4 110 -4q160 0 264.5 81t104.5 220q0 92 -58.5 135t-185.5 43q-72 0 -145 -4z" />
<glyph unicode="S" horiz-adv-x="929" d="M39 8l35 180q100 -43 209 -43q158 0 245.5 71t87.5 187q0 66 -43 119t-105 93t-123.5 84t-104.5 115t-43 163q0 180 135 303t375 123q113 0 208 -21l-34 -168q-90 33 -193 33q-143 0 -220 -67.5t-77 -159.5q0 -68 43 -124t105.5 -97t125 -87t105.5 -117t43 -161 q0 -195 -153.5 -324.5t-393.5 -129.5q-133 -1 -227 28z" />
<glyph unicode="T" horiz-adv-x="1036" d="M176 1225l29 157h964l-28 -157h-389l-236 -1225h-182l233 1225h-391z" />
<glyph unicode="U" horiz-adv-x="1386" d="M168 481l170 901h184l-174 -909q-11 -60 -11 -109q0 -92 40 -146q61 -83 239 -83q182 0 283.5 90t142.5 301l164 856h180l-165 -876q-98 -526 -631 -526q-437 0 -437 356q0 66 15 145z" />
<glyph unicode="V" horiz-adv-x="1239" d="M193 1382h196l135 -888q25 -162 35 -287h2q53 123 150 301l477 874h198l-759 -1382h-209z" />
<glyph unicode="W" horiz-adv-x="1914" d="M240 1382h188l57 -903q5 -73 5 -148q0 -57 -3 -116h2q57 152 105 258l424 909h211l86 -917q9 -83 9 -181q0 -33 -1 -67h2q39 119 88 227l412 938h192l-620 -1382h-230l-80 930q-7 86 -7 171q0 34 1 68h-2q-41 -121 -94 -237l-428 -932h-223z" />
<glyph unicode="X" horiz-adv-x="1200" d="M-61 0l585 719l-293 663h207l224 -524l413 524h217l-544 -671l321 -711h-221l-238 569l-448 -569h-223z" />
<glyph unicode="Y" horiz-adv-x="1077" d="M188 1382h193l127 -467q29 -106 57 -239h2q39 68 166 266l287 440h207l-600 -884l-95 -498h-184l94 498z" />
<glyph unicode="Z" horiz-adv-x="1060" d="M-2 0l27 139l712 914q37 45 144 166q-127 -4 -287 -5h-344l33 168h852l-29 -143l-750 -950l-102 -121q41 4 338 4h319l-32 -172h-881z" />
<glyph unicode="[" horiz-adv-x="645" d="M2 -408l379 1987h397l-28 -141h-226l-325 -1700h229l-29 -146h-397z" />
<glyph unicode="\" horiz-adv-x="821" d="M236 1382h161l262 -1382h-165z" />
<glyph unicode="]" horiz-adv-x="645" d="M-94 -408l28 146h228l323 1700h-227l27 141h397l-379 -1987h-397z" />
<glyph unicode="^" horiz-adv-x="1089" d="M147 770l369 612h146l319 -610l-139 -70l-269 543l-307 -543z" />
<glyph unicode="_" horiz-adv-x="1024" d="M0 -371h1024v-145h-1024v145z" />
<glyph unicode="`" horiz-adv-x="741" d="M297 1378l98 129l275 -225l-80 -106z" />
<glyph unicode="a" d="M72 289q0 145 37.5 275t113.5 236.5t202 170t286 63.5q162 0 319 -30l-188 -1004h-183q27 129 119 414l-4 2q-205 -436 -475 -436q-227 0 -227 309zM258 324q0 -186 104 -187q90 0 189.5 114t167 262.5t92.5 274.5l14 82q-74 18 -145 19q-143 0 -242.5 -91t-139.5 -214 t-40 -260z" />
<glyph unicode="b" d="M82 18l280 1477h183l-96 -496q-20 -102 -113 -391l4 -2q84 197 205 314.5t268 117.5q227 0 227 -309q0 -145 -38.5 -275t-113.5 -236.5t-201 -170t-287.5 -64t-317.5 34.5zM287 147q66 -18 145 -18q109 0 193 52t132 137t72.5 181.5t24.5 194.5q0 186 -104 187 q-90 0 -188.5 -114t-166 -260.5t-92.5 -273.5z" />
<glyph unicode="c" horiz-adv-x="843" d="M74 319q0 303 158.5 509t424.5 206q109 0 215 -30l-41 -160q-88 39 -186 39q-178 0 -278.5 -163t-100.5 -360q0 -215 213 -215q127 0 230 50l-13 -162q-133 -49 -268 -49q-354 -1 -354 335z" />
<glyph unicode="d" d="M72 289q0 145 37.5 275t113.5 236.5t202 170t286 63.5q68 0 143 -12l88 473h182l-215 -1128q-53 -283 -67 -367h-180q23 123 116 414l-4 2q-205 -436 -475 -436q-227 0 -227 309zM258 324q0 -186 104 -187q90 0 189.5 114t167 262.5t92.5 274.5l14 82q-74 18 -145 19 q-143 0 -242.5 -91t-139.5 -214t-40 -260z" />
<glyph unicode="e" horiz-adv-x="976" d="M78 311q0 305 154.5 515t402.5 210q152 0 225.5 -65.5t73.5 -165.5q0 -332 -660 -356q-10 -51 -10 -119q0 -117 47 -158t172 -41q145 0 287 59v-147q-156 -61 -350 -61q-176 0 -259 78.5t-83 250.5zM297 584q236 8 345.5 57t109.5 141q0 55 -37 85t-101 30 q-115 0 -197.5 -88t-119.5 -225z" />
<glyph unicode="f" horiz-adv-x="694" d="M-352 -502l45 156q68 -20 143 -21q113 0 176.5 69t96.5 243l178 929h-207l31 144h202l15 72q74 418 460 417q84 0 170 -18l-45 -152q-76 20 -143 21q-113 0 -175.5 -63.5t-86.5 -207.5l-12 -69h276l-31 -144h-274l-176 -925q-47 -246 -162 -357.5t-305 -111.5 q-94 0 -176 18z" />
<glyph unicode="g" horiz-adv-x="1097" d="M-45 -483l43 178q121 -57 272 -57q164 0 256 72.5t125 240.5q31 162 123 455h-4q-201 -426 -471 -426q-227 0 -227 309q0 145 39 275t113.5 236.5t200.5 170t286 63.5q162 0 319 -30l-209 -1098q-82 -428 -592 -428q-153 0 -274 39zM258 324q0 -186 104 -187 q90 0 189.5 114t167 262.5t92.5 274.5l14 82q-74 18 -145 19q-143 0 -242.5 -91t-139.5 -214t-40 -260z" />
<glyph unicode="h" horiz-adv-x="1153" d="M78 0l284 1495h181l-92 -477q-33 -160 -115 -402h4q82 182 203 302t268 120q139 0 191 -91q33 -57 33 -143q0 -51 -11 -112l-133 -692h-180l125 651q11 57 11 101q0 129 -102 129q-88 0 -186 -112t-165.5 -260.5t-92.5 -279.5l-43 -229h-180z" />
<glyph unicode="i" horiz-adv-x="520" d="M78 0l194 1018h181l-195 -1018h-180zM297 1303q2 51 40 86.5t89 35.5q49 0 82 -33q31 -32 31 -76q0 -55 -41 -93q-39 -37 -88 -37q-51 0 -84 35q-29 31 -29 71v11z" />
<glyph unicode="j" horiz-adv-x="528" d="M-307 -504l37 160q57 -23 114 -23q100 0 146.5 58.5t77.5 218.5l213 1108h180l-219 -1145q-39 -201 -134.5 -297t-283.5 -96q-76 0 -131 16zM342 1390q39 36 90 35q49 0 82 -33q29 -30 29 -71v-10q-2 -51 -40 -88t-89 -37q-49 0 -82 35q-31 33 -31 76q0 55 41 93z" />
<glyph unicode="k" horiz-adv-x="972" d="M78 0l284 1495h181l-174 -911l477 485l133 -104l-434 -408l307 -557h-221l-271 539l-102 -539h-180z" />
<glyph unicode="l" horiz-adv-x="520" d="M78 0l284 1495h181l-285 -1495h-180z" />
<glyph unicode="m" horiz-adv-x="1763" d="M78 0l102 532l90 486h179q-25 -139 -113 -402h4q80 180 198.5 301t264.5 121q98 0 151.5 -51t53.5 -147q0 -72 -50 -226l5 -2q80 184 198.5 305t263.5 121q135 0 187 -91q32 -57 32 -142q0 -51 -12 -113l-131 -692h-182l125 651q12 61 12 106q0 126 -94 126 q-82 0 -177 -106.5t-166 -257t-97 -290.5l-43 -229h-181l125 651q12 60 12 105q0 127 -96 127q-123 0 -259 -216t-179 -438l-43 -229h-180z" />
<glyph unicode="n" horiz-adv-x="1153" d="M78 0l102 532l90 486h179q-25 -133 -113 -402h4q82 182 203 302t268 120q137 0 190 -91q34 -58 34 -145q0 -50 -11 -110l-133 -692h-180l125 651q11 57 11 101q0 129 -102 129q-88 0 -186 -112t-165.5 -260.5t-92.5 -279.5l-43 -229h-180z" />
<glyph unicode="o" horiz-adv-x="1103" d="M76 344q0 301 169 496.5t421 195.5q193 0 285.5 -98t92.5 -268q0 -303 -178 -495.5t-417 -192.5q-373 0 -373 362zM264 375q0 -236 215 -236q152 0 262.5 145.5t110.5 364.5q0 231 -215 232q-162 0 -267.5 -152.5t-105.5 -353.5z" />
<glyph unicode="p" d="M-18 -506l288 1524h181q-29 -137 -115 -408l4 -2q84 195 205 312.5t268 117.5q227 0 227 -309q0 -145 -37.5 -275t-113.5 -236.5t-202 -169t-288 -62.5q-72 0 -143 12l-94 -504h-180zM287 156q74 -25 147 -25q106 0 190.5 52.5t132.5 136t72.5 180t24.5 194.5 q0 186 -104 187q-90 0 -188.5 -114t-166 -260.5t-92.5 -273.5z" />
<glyph unicode="q" d="M72 289q0 145 37.5 275t113.5 236.5t202 170t286 63.5q162 0 319 -30l-287 -1510h-180l90 469q29 164 125 451l-4 2q-205 -436 -475 -436q-227 0 -227 309zM258 324q0 -186 104 -187q90 0 189.5 114t167 262.5t92.5 274.5l14 82q-74 18 -145 19q-143 0 -242.5 -91 t-139.5 -214t-40 -260z" />
<glyph unicode="r" horiz-adv-x="714" d="M78 0l192 1018h176q-27 -139 -104 -375l4 -2q98 211 198 314q82 85 188 85q23 0 48 -4l-37 -178q-17 5 -35 5q-72 0 -149 -81q-96 -100 -162.5 -252.5t-95.5 -300.5l-43 -229h-180z" />
<glyph unicode="s" horiz-adv-x="780" d="M31 -4l32 164q86 -27 166 -27q102 0 163 41t61 119q0 45 -32 83t-77 69.5t-90 67.5t-77 91t-32 123q0 135 105.5 222t298.5 87q84 0 174 -14l-33 -150q-74 25 -153 25q-96 0 -149.5 -41t-53.5 -108q0 -45 31.5 -85t76.5 -73l92 -70q46 -37 77.5 -90t31.5 -117 q0 -137 -116.5 -234t-321.5 -97q-102 0 -174 14z" />
<glyph unicode="t" horiz-adv-x="745" d="M78 874l28 144h205l64 330l190 43l-71 -373h276l-29 -144h-276l-100 -532q-11 -63 -11 -103q0 -37 8 -57q18 -41 94 -41t142 17l-12 -154q-98 -20 -191 -20q-154 0 -202 76q-29 46 -30 128q0 55 13 125l109 561h-207z" />
<glyph unicode="u" horiz-adv-x="1153" d="M139 326l131 692h183l-125 -651q-11 -58 -12 -102q0 -128 100 -128q131 0 269 220.5t177 430.5l43 230h180l-192 -1018h-180q35 168 112 401h-4q-82 -182 -201.5 -301.5t-267.5 -119.5q-139 0 -191 91q-33 57 -33 143q0 51 11 112z" />
<glyph unicode="v" horiz-adv-x="966" d="M121 1018h194l95 -598q16 -100 22 -197h2l430 838l170 -60l-545 -1001h-188z" />
<glyph unicode="w" horiz-adv-x="1585" d="M139 1018h193l49 -543q16 -188 16 -254h2l389 797h191l74 -541q18 -135 22 -258h2l398 840l170 -55l-504 -1004h-207l-80 578q-14 104 -16 204h-2l-385 -782h-199z" />
<glyph unicode="x" horiz-adv-x="1050" d="M-43 47l463 475l-252 496h209l180 -379l397 430l138 -96l-451 -469l264 -504h-215l-188 383l-402 -436z" />
<glyph unicode="y" horiz-adv-x="997" d="M-246 -506l31 166q59 -20 129 -20q115 0 225 116q115 123 115 326q0 401 -150 936h205q115 -449 115 -799q0 -55 -14 -127h2q236 414 460 967l172 -51q-416 -975 -778 -1344q-180 -184 -368 -184q-87 0 -144 14z" />
<glyph unicode="z" horiz-adv-x="880" d="M2 0l25 129l589 729q-119 -4 -249 -4h-191l33 164h663l-26 -129l-584 -723q111 4 260 4h197l-33 -170h-684z" />
<glyph unicode="{" horiz-adv-x="686" d="M76 575l28 146q121 6 176.5 52t79.5 169l46 240q72 397 387 397h38l-26 -141q-106 0 -155.5 -53.5t-76.5 -196.5l-45 -238q-51 -276 -245 -303v-4q140 -21 140 -190q0 -48 -11 -109l-70 -356q-13 -69 -13 -117q0 -52 15 -80q29 -53 131 -53l-26 -146h-37q-166 0 -222 102 q-32 60 -32 152q0 65 16 146l72 358q8 44 8 78q0 61 -26 92q-39 49 -152 55z" />
<glyph unicode="|" horiz-adv-x="571" d="M211 -512v2048h145v-2048h-145z" />
<glyph unicode="}" horiz-adv-x="686" d="M-94 -406l26 146q106 0 154.5 52t77.5 196l67 356q53 281 246 305v4q-142 20 -142 185q0 49 13 112l47 240q13 70 13 119q0 50 -14 76q-28 52 -132 53l27 143h33q256 0 256 -252q0 -64 -17 -145l-47 -242q-9 -45 -9 -80q0 -57 24 -87q40 -48 155 -54l-29 -146 q-121 -6 -176 -53t-80 -172l-67 -356q-39 -209 -129 -304.5t-258 -95.5h-39z" />
<glyph unicode="~" horiz-adv-x="1179" d="M113 592q135 111 280 110q104 0 227 -64.5t203 -64.5q96 0 213 99l45 -131q-133 -127 -286 -127q-104 0 -234.5 65.5t-200.5 65.5q-102 0 -202 -88z" />
<glyph unicode="&#xa1;" horiz-adv-x="604" d="M20 -428l236 1104h152l-185 -1104h-203zM256 911q0 55 37 91t90 36q49 0 83 -33.5t34 -82.5q0 -53 -36 -89t-89 -36q-51 0 -85 33.5t-34 80.5z" />
<glyph unicode="&#xa2;" horiz-adv-x="913" d="M88 432q0 258 141.5 427t352.5 198l34 186h144l-35 -180q109 -4 199 -41l-52 -152q-86 43 -204 43q-172 0 -280.5 -128t-108.5 -320q0 -229 241 -229q137 0 252 57l-12 -162q-100 -45 -223 -53l-41 -217h-142l43 221q-150 16 -229.5 107t-79.5 243z" />
<glyph unicode="&#xa3;" horiz-adv-x="993" d="M25 0l24 139q109 76 166 126t92 115.5t45 124t21 175.5h-215l26 141h201q27 264 29 273q66 354 428 354q90 0 159 -14l-38 -154q-70 18 -138 18q-193 0 -233 -213q-2 -12 -27 -264h289l-27 -141h-274q-16 -195 -66.5 -304.5t-195.5 -219.5q66 6 155 6h361l-33 -162h-749z " />
<glyph unicode="&#xa4;" horiz-adv-x="1146" d="M0 -485l45 178q123 -55 270 -55q164 0 258.5 72.5t126.5 240.5q37 193 125 452l-4 3q-84 -186 -203.5 -306t-267.5 -120q-139 0 -191 91q-33 57 -33 143q0 51 11 112l131 692h181l-125 -653q-11 -57 -12 -100q0 -130 104 -130q88 0 185 110.5t166 260t93 285.5l43 227 h180l-213 -1114q-84 -426 -594 -426q-147 0 -276 37z" />
<glyph unicode="&#xa5;" horiz-adv-x="1185" d="M61 203l25 125h330l28 143h-331l24 125h287l-234 786h197l129 -454q39 -139 57 -242h2q61 109 166 264l291 432h203l-541 -786h287l-25 -125h-329l-29 -143h330l-23 -125h-330l-38 -203h-183l37 203h-330z" />
<glyph unicode="&#xa7;" horiz-adv-x="991" d="M88 -328l37 166q63 -29 137 -28q109 0 167 59t58 145q0 61 -46 143.5t-102 151t-102.5 166t-46.5 195.5t49 187q50 93 140 157q-29 61 -29 143q0 145 106.5 256t311.5 111q82 0 150 -11l-35 -157q-66 16 -123 16q-111 0 -163 -56t-52 -145q0 -63 46 -144t100 -149.5 t100.5 -168t46.5 -193.5q0 -211 -185 -342q29 -61 29 -139q0 -158 -120 -270.5t-320 -112.5q-97 0 -154 20zM362 709q0 -53 31 -124t63.5 -122t118.5 -176q37 25 63 79t28 111q0 59 -26 116.5t-91.5 158t-91.5 145.5q-43 -29 -69 -81t-26 -107z" />
<glyph unicode="&#xa8;" horiz-adv-x="1095" d="M313 1335q0 49 34 82t81 33q45 0 76 -30.5t31 -73.5q0 -49 -33 -82t-80 -33q-45 0 -77 30.5t-32 73.5zM707 1337q0 47 33.5 80t80.5 33q45 0 76 -30.5t31 -73.5q0 -49 -33 -82t-80 -33q-45 0 -76.5 30.5t-31.5 75.5z" />
<glyph unicode="&#xa9;" horiz-adv-x="1517" d="M106 684q8 285 214 485.5t493 200.5t481 -199q187 -191 187 -460v-23q-8 -287 -215 -487.5t-492 -200.5q-291 0 -483 199q-185 191 -185 462v23zM252 688v-17q0 -216 148 -371q155 -161 380 -161q223 0 386 160t169 385q0 9 1 17q0 214 -149 369q-155 161 -380 161 t-387 -159t-168 -384zM469 672q0 164 89 271.5t271 107.5q88 0 162 -27l-18 -131q-70 33 -148 33q-197 0 -196 -244q0 -227 184 -227q82 0 164 30l14 -127q-78 -35 -200 -34q-164 0 -243 94t-79 254z" />
<glyph unicode="&#xaa;" horiz-adv-x="780" d="M160 899q0 207 115.5 351.5t324.5 144.5q131 0 234 -19q-106 -549 -125 -674h-150q12 63 62 205h-3q-106 -217 -286 -217q-172 0 -172 209zM313 934q0 -111 70 -111q86 0 165 116t107 267l11 56q-43 10 -97 10q-115 0 -185.5 -103.5t-70.5 -234.5z" />
<glyph unicode="&#xab;" horiz-adv-x="1015" d="M121 504l276 373l131 -78l-227 -297l162 -287l-150 -78zM516 504l293 368l129 -79l-242 -291l178 -283l-147 -78z" />
<glyph unicode="&#xac;" horiz-adv-x="1105" d="M88 463v151h901v-473h-160v322h-741z" />
<glyph unicode="&#xad;" horiz-adv-x="675" d="M96 440v148h484v-148h-484z" />
<glyph unicode="&#xae;" horiz-adv-x="1128" d="M219 1079q2 190 138.5 323.5t324.5 133.5t315 -129q125 -127 125 -308q0 -192 -139 -327q-137 -133 -321 -133q-190 0 -319 128q-124 124 -124 301v11zM342 1090v-12q0 -128 91 -224q95 -100 230.5 -100t233.5 97q102 101 102 238q0 134 -92 231q-94 99 -229 99 q-137 0 -234.5 -96t-101.5 -233zM520 856v467h162q160 0 160 -123q0 -113 -115 -133q31 -31 57 -78l74 -133h-121l-108 195h-10v-195h-99zM619 1116h28q45 0 66.5 21.5t21.5 50.5q0 57 -71 57h-45v-129z" />
<glyph unicode="&#xaf;" horiz-adv-x="772" d="M326 1264v137h446v-137h-446z" />
<glyph unicode="&#xb0;" horiz-adv-x="753" d="M346 1436q88 74 201 73q131 0 195 -71q61 -67 61 -166v-12q-2 -123 -91 -197t-202 -74q-121 0 -188 68q-66 66 -66 173q0 131 90 206zM401 1240q0 -58 31 -93q33 -37 90.5 -37t95 40t39.5 103q0 3 1 7q0 49 -28 89q-30 42 -95 42q-55 0 -94 -40q-40 -42 -40 -111z" />
<glyph unicode="&#xb1;" horiz-adv-x="1175" d="M94 559v154h406v407h176v-407h405v-154h-405v-412h-176v412h-406zM104 29h967v-156h-967v156z" />
<glyph unicode="&#xb2;" horiz-adv-x="966" d="M16 0l27 147l307 228q190 139 257 216t67 171q0 61 -42 107t-130 46q-147 0 -277 -84v168q150 72 324 72q162 0 246 -75.5t84 -192.5q0 -129 -80 -234.5t-252 -228.5l-244 -178l-2 -4q106 8 506 8l-33 -166h-758z" />
<glyph unicode="&#xb3;" horiz-adv-x="931" d="M-70 -383l41 170q78 -31 160 -31q182 0 298 97.5t116 246.5q0 202 -296 202q-56 0 -122 -7l27 149q221 0 355 85t134 231q0 156 -184 155q-121 0 -248 -63v162q131 53 297 53t250 -71.5t84 -196.5q0 -270 -310 -398l-2 -2q90 -12 152.5 -89t62.5 -183q0 -221 -180 -375.5 t-459 -154.5q-88 0 -176 20z" />
<glyph unicode="&#xb4;" horiz-adv-x="780" d="M295 1280l307 227l86 -127l-323 -202z" />
<glyph unicode="&#xb5;" horiz-adv-x="1216" d="M-18 -506l288 1524h181l-123 -643q-9 -48 -9 -87q0 -61 22 -95q36 -57 130 -58q92 0 191.5 113.5t166 262t91.5 275.5l43 232h180l-195 -1018h-176q29 147 113 399l-4 2q-78 -180 -193 -298.5t-250 -118.5t-172 79l-4 -2q-2 -27 -37 -221l-65 -346h-178z" />
<glyph unicode="&#xb6;" horiz-adv-x="1157" d="M209 852q0 207 147.5 368.5t393.5 161.5l-166 -876q-186 0 -280.5 94t-94.5 252zM455 -197l26 144h148l272 1435h303l-24 -143h-144l-272 -1436h-309z" />
<glyph unicode="&#xb7;" horiz-adv-x="471" d="M166 682q41 39 96 39q53 0 88 -37q33 -35 33 -84v-6q-2 -57 -43 -96t-96.5 -39t-88.5 37q-32 35 -32 84q0 61 43 102z" />
<glyph unicode="&#xb8;" horiz-adv-x="802" d="M143 -414q159 103 160 231q0 38 -14 79h174q13 -42 12 -81q0 -179 -260 -311z" />
<glyph unicode="&#xb9;" horiz-adv-x="679" d="M135 774v168l320 111h149l-203 -1053h-186l168 872z" />
<glyph unicode="&#xba;" horiz-adv-x="851" d="M188 932q0 193 113 330t293 137q276 0 276 -246q0 -215 -126 -339t-291 -124q-265 0 -265 242zM356 961q0 -133 117 -134q102 0 164.5 89.5t62.5 213.5q0 135 -122 136q-76 0 -128.5 -53.5t-73 -119.5t-20.5 -132z" />
<glyph unicode="&#xbb;" horiz-adv-x="1015" d="M113 219l241 291l-178 283l148 77l211 -362l-293 -369zM522 213l228 297l-162 287l149 77l193 -366l-277 -373z" />
<glyph unicode="&#xbc;" horiz-adv-x="2617" d="M135 774v168l320 111h149l-203 -1053h-186l168 872zM535 -176l1198 1726l139 -80l-1196 -1724zM1489 0v152l721 903h252l-168 -889h229l-33 -166h-229l-76 -393h-180l76 393h-592zM1671 164q119 2 445 2l135 715h-4z" />
<glyph unicode="&#xbd;" horiz-adv-x="2486" d="M135 774v168l320 111h149l-203 -1053h-186l168 872zM535 -176l1198 1726l139 -80l-1196 -1724zM1536 0l27 147l307 228q190 139 256.5 216t66.5 171q0 61 -42 107t-130 46q-147 0 -276 -84v168q150 72 323 72q162 0 246 -75.5t84 -192.5q0 -129 -80 -234.5t-252 -228.5 l-243 -178l-2 -4q106 8 506 8l-33 -166h-758z" />
<glyph unicode="&#xbe;" horiz-adv-x="2869" d="M-70 -383l41 170q78 -31 160 -31q182 0 298 97.5t116 246.5q0 202 -296 202q-56 0 -122 -7l27 149q221 0 355 85t134 231q0 156 -184 155q-121 0 -248 -63v162q131 53 297 53t250 -71.5t84 -196.5q0 -270 -310 -398l-2 -2q90 -12 152.5 -89t62.5 -183q0 -221 -180 -375.5 t-459 -154.5q-88 0 -176 20zM786 -176l1199 1726l139 -80l-1196 -1724zM1741 0v152l721 903h252l-168 -889h229l-33 -166h-229l-76 -393h-180l76 393h-592zM1923 164q119 2 444 2l136 715h-4z" />
<glyph unicode="&#xbf;" horiz-adv-x="847" d="M29 -49q4 90 55 164.5t116.5 127t129 109t99.5 137.5q26 59 26 129q0 28 -4 58h180q5 -38 5 -74q0 -75 -24 -138q-35 -93 -96 -153.5t-124.5 -112t-111.5 -110.5q-50 -62 -51 -131q0 -87 89 -147q93 -63 251 -80l-53 -168q-244 20 -371 131q-118 102 -117 236q0 11 1 22z M449 911q0 55 36.5 91t89.5 36q49 0 83 -33.5t34 -82.5q0 -53 -35.5 -89t-89.5 -36q-51 0 -84.5 33.5t-33.5 80.5z" />
<glyph unicode="&#xc0;" horiz-adv-x="1239" d="M-74 0l758 1382h205l233 -1382h-198l-50 324h-577l-174 -324h-197zM375 473h477l-82 494q-18 96 -25 204h-4q-41 -96 -100 -206zM563 1692l99 129l274 -226l-80 -106z" />
<glyph unicode="&#xc1;" horiz-adv-x="1239" d="M-74 0l758 1382h205l233 -1382h-198l-50 324h-577l-174 -324h-197zM375 473h477l-82 494q-18 96 -25 204h-4q-41 -96 -100 -206zM664 1593l307 228l86 -127l-324 -203z" />
<glyph unicode="&#xc2;" horiz-adv-x="1239" d="M-74 0l758 1382h205l233 -1382h-198l-50 324h-577l-174 -324h-197zM375 473h477l-82 494q-18 96 -25 204h-4q-41 -96 -100 -206zM528 1606l297 190l273 -186l-80 -109l-205 139l-221 -139z" />
<glyph unicode="&#xc3;" horiz-adv-x="1239" d="M-74 0l758 1382h205l233 -1382h-198l-50 324h-577l-174 -324h-197zM375 473h477l-82 494q-18 96 -25 204h-4q-41 -96 -100 -206zM496 1690q84 78 190 77q70 0 158 -48t143 -48q84 0 146 60l24 -127q-92 -74 -194 -74q-76 0 -161 48t-143 48q-76 0 -141 -59z" />
<glyph unicode="&#xc4;" horiz-adv-x="1239" d="M-74 0l758 1382h205l233 -1382h-198l-50 324h-577l-174 -324h-197zM375 473h477l-82 494q-18 96 -25 204h-4q-41 -96 -100 -206zM518 1620q0 49 34 82t81 33q45 0 75.5 -31t30.5 -74q0 -49 -32.5 -81.5t-79.5 -32.5q-45 0 -77 30.5t-32 73.5zM911 1622q0 47 34 80t81 33 q45 0 76 -31t31 -74q0 -49 -33 -81.5t-80 -32.5q-45 0 -77 30.5t-32 75.5z" />
<glyph unicode="&#xc5;" horiz-adv-x="1239" d="M-74 0l758 1382h205l233 -1382h-198l-50 324h-577l-174 -324h-197zM375 473h477l-82 494q-18 96 -25 204h-4q-41 -96 -100 -206zM571 1575q4 96 76 161.5t168 65.5t158 -63q58 -60 57 -146v-12q-4 -94 -74.5 -160.5t-167 -66.5t-158.5 62q-59 59 -59 147v12zM690 1577 v-11q0 -40 27 -70q31 -34 78 -34t81 34q38 38 38 89q0 43 -28 75q-30 34 -77 34q-49 0 -83 -34t-36 -83z" />
<glyph unicode="&#xc6;" horiz-adv-x="1550" d="M-180 0l973 1382h790l-29 -155h-503l-84 -439h483l-29 -151h-483l-92 -479h522l-29 -158h-702l63 330h-446l-231 -330h-203zM350 479h381l141 748h-6q-84 -143 -186 -287z" />
<glyph unicode="&#xc7;" horiz-adv-x="1150" d="M109 459q0 248 87 456.5t272 344t435 135.5q156 0 305 -41l-45 -172q-135 49 -286 49q-117 0 -212.5 -44t-160 -117t-108.5 -170t-63.5 -199.5t-19.5 -211.5q0 -162 80 -249.5t269 -87.5q174 0 321 67l-8 -170q-176 -66 -369 -65q-497 0 -497 475zM342 -414 q159 103 159 231q0 38 -14 79h175q13 -42 12 -81q0 -179 -260 -311z" />
<glyph unicode="&#xc8;" horiz-adv-x="1005" d="M80 0l262 1382h696l-30 -155h-512l-84 -439h489l-29 -151h-489l-90 -479h514l-31 -158h-696zM475 1692l98 129l275 -226l-80 -106z" />
<glyph unicode="&#xc9;" horiz-adv-x="1005" d="M80 0l262 1382h696l-30 -155h-512l-84 -439h489l-29 -151h-489l-90 -479h514l-31 -158h-696zM594 1593l307 228l86 -127l-323 -203z" />
<glyph unicode="&#xca;" horiz-adv-x="1005" d="M80 0l262 1382h696l-30 -155h-512l-84 -439h489l-29 -151h-489l-90 -479h514l-31 -158h-696zM426 1606l297 190l272 -186l-80 -109l-204 139l-222 -139z" />
<glyph unicode="&#xcb;" horiz-adv-x="1005" d="M80 0l262 1382h696l-30 -155h-512l-84 -439h489l-29 -151h-489l-90 -479h514l-31 -158h-696zM420 1620q0 49 33.5 82t81.5 33q45 0 75.5 -31t30.5 -74q0 -49 -33 -81.5t-80 -32.5q-45 0 -76.5 30.5t-31.5 73.5zM813 1622q0 47 34 80t81 33q45 0 75.5 -31t30.5 -74 q0 -49 -32.5 -81.5t-79.5 -32.5q-45 0 -77 30.5t-32 75.5z" />
<glyph unicode="&#xcc;" horiz-adv-x="526" d="M80 0l262 1382h182l-262 -1382h-182zM229 1692l99 129l274 -226l-80 -106z" />
<glyph unicode="&#xcd;" horiz-adv-x="526" d="M80 0l262 1382h182l-262 -1382h-182zM315 1593l308 228l86 -127l-324 -203z" />
<glyph unicode="&#xce;" horiz-adv-x="526" d="M80 0l262 1382h182l-262 -1382h-182zM186 1606l297 190l273 -186l-80 -109l-205 139l-221 -139z" />
<glyph unicode="&#xcf;" horiz-adv-x="526" d="M80 0l262 1382h182l-262 -1382h-182zM162 1620q0 49 33.5 82t80.5 33q45 0 76 -31t31 -74q0 -49 -33 -81.5t-80 -32.5q-45 0 -76.5 30.5t-31.5 73.5zM555 1622q0 47 34 80t81 33q45 0 75.5 -31t30.5 -74q0 -49 -32.5 -81.5t-79.5 -32.5q-45 0 -77 30.5t-32 75.5z" />
<glyph unicode="&#xd1;" horiz-adv-x="1398" d="M78 0l262 1382h219l348 -827q51 -119 109 -303l84 493l117 637h182l-264 -1382h-215l-355 846q-68 166 -102 293q-43 -276 -86 -514l-117 -625h-182zM573 1690q84 78 191 77q70 0 158 -48t143 -48q84 0 145 60l25 -127q-92 -74 -195 -74q-76 0 -160.5 48t-142.5 48 q-76 0 -141 -59z" />
<glyph unicode="&#xd2;" horiz-adv-x="1415" d="M102 483q0 379 228.5 649.5t562.5 270.5q240 0 369 -131t129 -373q0 -391 -231.5 -655t-563.5 -264q-246 0 -370 130.5t-124 372.5zM301 510q0 -170 83 -266.5t239 -96.5q236 0 402.5 213t166.5 519q0 168 -83 263t-247 95q-242 0 -401.5 -214t-159.5 -513zM686 1692 l98 129l275 -226l-80 -106z" />
<glyph unicode="&#xd3;" horiz-adv-x="1415" d="M102 483q0 379 228.5 649.5t562.5 270.5q240 0 369 -131t129 -373q0 -391 -231.5 -655t-563.5 -264q-246 0 -370 130.5t-124 372.5zM301 510q0 -170 83 -266.5t239 -96.5q236 0 402.5 213t166.5 519q0 168 -83 263t-247 95q-242 0 -401.5 -214t-159.5 -513zM823 1593 l307 228l87 -127l-324 -203z" />
<glyph unicode="&#xd4;" horiz-adv-x="1415" d="M102 483q0 379 228.5 649.5t562.5 270.5q240 0 369 -131t129 -373q0 -391 -231.5 -655t-563.5 -264q-246 0 -370 130.5t-124 372.5zM301 510q0 -170 83 -266.5t239 -96.5q236 0 402.5 213t166.5 519q0 168 -83 263t-247 95q-242 0 -401.5 -214t-159.5 -513zM686 1606 l297 190l272 -186l-79 -109l-205 139l-221 -139z" />
<glyph unicode="&#xd5;" horiz-adv-x="1415" d="M102 483q0 379 228.5 649.5t562.5 270.5q240 0 369 -131t129 -373q0 -391 -231.5 -655t-563.5 -264q-246 0 -370 130.5t-124 372.5zM301 510q0 -170 83 -266.5t239 -96.5q236 0 402.5 213t166.5 519q0 168 -83 263t-247 95q-242 0 -401.5 -214t-159.5 -513zM618 1692 q84 78 191 77q70 0 158 -48t143 -48q84 0 145 60l25 -127q-92 -74 -195 -74q-76 0 -160.5 48t-142.5 48q-76 0 -141 -59z" />
<glyph unicode="&#xd6;" horiz-adv-x="1415" d="M102 483q0 379 228.5 649.5t562.5 270.5q240 0 369 -131t129 -373q0 -391 -231.5 -655t-563.5 -264q-246 0 -370 130.5t-124 372.5zM301 510q0 -170 83 -266.5t239 -96.5q236 0 402.5 213t166.5 519q0 168 -83 263t-247 95q-242 0 -401.5 -214t-159.5 -513zM645 1620 q0 49 34 82t81 33q45 0 75.5 -31t30.5 -74q0 -49 -32.5 -81.5t-79.5 -32.5q-45 0 -77 30.5t-32 73.5zM1038 1622q0 47 34 80t81 33q45 0 76 -31t31 -74q0 -49 -33 -81.5t-80 -32.5q-45 0 -77 30.5t-32 75.5z" />
<glyph unicode="&#xd8;" horiz-adv-x="1415" d="M102 483q0 381 227.5 650.5t563.5 269.5q72 0 143 -17l105 191l131 -53l-103 -185q221 -119 222 -440q0 -391 -231.5 -655t-563.5 -264q-82 0 -160 20l-110 -207l-133 55l110 201q-201 121 -201 434zM297 508q0 -190 104 -277l549 998q-55 9 -100 8h-19 q-229 -14 -381.5 -227t-152.5 -502zM524 160q40 -10 90 -10q21 0 43 2q223 16 381 225t158 504q0 197 -117 286z" />
<glyph unicode="&#xd9;" horiz-adv-x="1386" d="M168 481l170 901h184l-174 -909q-11 -60 -11 -109q0 -92 40 -146q61 -83 239 -83q182 0 283.5 90t142.5 301l164 856h180l-165 -876q-98 -526 -631 -526q-437 0 -437 356q0 66 15 145zM649 1692l99 129l274 -226l-80 -106z" />
<glyph unicode="&#xda;" horiz-adv-x="1386" d="M168 481l170 901h184l-174 -909q-11 -60 -11 -109q0 -92 40 -146q61 -83 239 -83q182 0 283.5 90t142.5 301l164 856h180l-165 -876q-98 -526 -631 -526q-437 0 -437 356q0 66 15 145zM774 1593l307 228l86 -127l-323 -203z" />
<glyph unicode="&#xdb;" horiz-adv-x="1386" d="M168 481l170 901h184l-174 -909q-11 -60 -11 -109q0 -92 40 -146q61 -83 239 -83q182 0 283.5 90t142.5 301l164 856h180l-165 -876q-98 -526 -631 -526q-437 0 -437 356q0 66 15 145zM627 1606l297 190l272 -186l-80 -109l-205 139l-221 -139z" />
<glyph unicode="&#xdc;" horiz-adv-x="1386" d="M168 481l170 901h184l-174 -909q-11 -60 -11 -109q0 -92 40 -146q61 -83 239 -83q182 0 283.5 90t142.5 301l164 856h180l-165 -876q-98 -526 -631 -526q-437 0 -437 356q0 66 15 145zM588 1620q0 49 33.5 82t80.5 33q45 0 76 -31t31 -74q0 -49 -33 -81.5t-80 -32.5 q-45 0 -76.5 30.5t-31.5 73.5zM981 1622q0 47 34 80t81 33q45 0 75.5 -31t30.5 -74q0 -49 -32.5 -81.5t-79.5 -32.5q-45 0 -77 30.5t-32 75.5z" />
<glyph unicode="&#xdd;" horiz-adv-x="1077" d="M188 1382h193l127 -467q29 -106 57 -239h2q39 68 166 266l287 440h207l-600 -884l-95 -498h-184l94 498zM666 1628l307 227l86 -126l-324 -203z" />
<glyph unicode="&#xdf;" horiz-adv-x="1161" d="M-362 -506l40 154q66 -16 129 -17q111 0 168.5 66.5t92.5 247.5l204 1079q94 487 525 487q147 0 232 -66.5t85 -174.5q0 -84 -36 -146.5t-86 -100.5t-100 -70.5t-86 -78t-36 -102.5q0 -47 25.5 -90t62.5 -80l74 -77q37 -40 62.5 -94t25.5 -116q0 -141 -116 -237t-310 -96 q-98 0 -170 14l33 164q82 -29 157 -29q100 0 157.5 44t57.5 120q0 47 -25.5 91t-61.5 80l-71 75q-36 39 -61.5 92t-25.5 115q0 78 34.5 138t85 99t101.5 74t86 82t35 106q0 55 -40 88t-114 33q-252 0 -315 -334l-207 -1089q-49 -256 -161 -361.5t-306 -105.5q-59 0 -145 16z " />
<glyph unicode="&#xe0;" d="M72 289q0 145 37.5 275t113.5 236.5t202 170t286 63.5q162 0 319 -30l-188 -1004h-183q27 129 119 414l-4 2q-205 -436 -475 -436q-227 0 -227 309zM258 324q0 -186 104 -187q90 0 189.5 114t167 262.5t92.5 274.5l14 82q-74 18 -145 19q-143 0 -242.5 -91t-139.5 -214 t-40 -260zM510 1378l98 129l275 -225l-80 -106z" />
<glyph unicode="&#xe1;" d="M72 289q0 145 37.5 275t113.5 236.5t202 170t286 63.5q162 0 319 -30l-188 -1004h-183q27 129 119 414l-4 2q-205 -436 -475 -436q-227 0 -227 309zM258 324q0 -186 104 -187q90 0 189.5 114t167 262.5t92.5 274.5l14 82q-74 18 -145 19q-143 0 -242.5 -91t-139.5 -214 t-40 -260zM657 1280l308 227l86 -127l-324 -202z" />
<glyph unicode="&#xe2;" d="M72 289q0 145 37.5 275t113.5 236.5t202 170t286 63.5q162 0 319 -30l-188 -1004h-183q27 129 119 414l-4 2q-205 -436 -475 -436q-227 0 -227 309zM258 324q0 -186 104 -187q90 0 189.5 114t167 262.5t92.5 274.5l14 82q-74 18 -145 19q-143 0 -242.5 -91t-139.5 -214 t-40 -260zM471 1292l297 191l272 -187l-79 -108l-205 139l-221 -139z" />
<glyph unicode="&#xe3;" d="M72 289q0 145 37.5 275t113.5 236.5t202 170t286 63.5q162 0 319 -30l-188 -1004h-183q27 129 119 414l-4 2q-205 -436 -475 -436q-227 0 -227 309zM258 324q0 -186 104 -187q90 0 189.5 114t167 262.5t92.5 274.5l14 82q-74 18 -145 19q-143 0 -242.5 -91t-139.5 -214 t-40 -260zM436 1376q84 78 191 78q70 0 157.5 -48t143.5 -48q84 0 145 59l25 -127q-92 -74 -195 -73q-76 0 -161 48t-142 48q-76 0 -141 -60z" />
<glyph unicode="&#xe4;" d="M72 289q0 145 37.5 275t113.5 236.5t202 170t286 63.5q162 0 319 -30l-188 -1004h-183q27 129 119 414l-4 2q-205 -436 -475 -436q-227 0 -227 309zM258 324q0 -186 104 -187q90 0 189.5 114t167 262.5t92.5 274.5l14 82q-74 18 -145 19q-143 0 -242.5 -91t-139.5 -214 t-40 -260zM438 1335q0 49 34 82t81 33q45 0 75.5 -30.5t30.5 -73.5q0 -49 -32.5 -82t-79.5 -33q-45 0 -77 30.5t-32 73.5zM831 1337q0 47 34 80t81 33q45 0 76 -30.5t31 -73.5q0 -49 -33 -82t-80 -33q-45 0 -77 30.5t-32 75.5z" />
<glyph unicode="&#xe5;" d="M72 289q0 145 37.5 275t113.5 236.5t202 170t286 63.5q162 0 319 -30l-188 -1004h-183q27 129 119 414l-4 2q-205 -436 -475 -436q-227 0 -227 309zM258 324q0 -186 104 -187q90 0 189.5 114t167 262.5t92.5 274.5l14 82q-74 18 -145 19q-143 0 -242.5 -91t-139.5 -214 t-40 -260zM565 1354q4 96 76 161.5t168 65.5t158 -63q58 -60 57 -146v-12q-4 -94 -74.5 -160.5t-167 -66.5t-158.5 62q-59 59 -59 147v12zM684 1356v-11q0 -40 27 -70q31 -34 78 -34t80 34q38 38 38 89q0 43 -27 75q-30 34 -77 34q-49 0 -83 -34t-36 -83z" />
<glyph unicode="&#xe6;" horiz-adv-x="1570" d="M45 193q0 102 49 176.5t144.5 117.5t209 65.5t263.5 31.5l14 67q10 48 10 87q0 59 -23 96q-38 59 -159 59q-158 0 -307 -86v160q174 72 342 71q135 0 199.5 -42t91.5 -115q57 66 151 110.5t199 44.5q154 0 227.5 -65.5t73.5 -165.5q0 -156 -147.5 -245t-516.5 -107 q-8 -61 -8 -123q0 -117 48 -158t171 -41q147 0 289 59v-147q-156 -61 -350 -61q-152 0 -224.5 59t-97.5 168q-55 -94 -163.5 -160.5t-235.5 -66.5q-125 0 -187.5 57.5t-62.5 153.5zM229 236q0 -49 34 -79t87 -30q123 0 216 96t118 230q-147 -8 -238.5 -26.5t-154 -65.5 t-62.5 -125zM893 588q227 16 340 56t113 138q0 55 -37 85t-101 30q-115 0 -196.5 -87t-118.5 -222z" />
<glyph unicode="&#xe7;" horiz-adv-x="843" d="M74 319q0 303 158.5 509t424.5 206q109 0 215 -30l-41 -160q-88 39 -186 39q-178 0 -278.5 -163t-100.5 -360q0 -215 213 -215q127 0 230 50l-13 -162q-133 -49 -268 -49q-354 -1 -354 335zM154 -414q159 103 159 231q0 38 -14 79h174q13 -42 13 -81q0 -179 -261 -311z " />
<glyph unicode="&#xe8;" horiz-adv-x="976" d="M78 311q0 305 154.5 515t402.5 210q152 0 225.5 -65.5t73.5 -165.5q0 -332 -660 -356q-10 -51 -10 -119q0 -117 47 -158t172 -41q145 0 287 59v-147q-156 -61 -350 -61q-176 0 -259 78.5t-83 250.5zM297 584q236 8 345.5 57t109.5 141q0 55 -37 85t-101 30 q-115 0 -197.5 -88t-119.5 -225zM438 1378l99 129l274 -225l-80 -106z" />
<glyph unicode="&#xe9;" horiz-adv-x="976" d="M78 311q0 305 154.5 515t402.5 210q152 0 225.5 -65.5t73.5 -165.5q0 -332 -660 -356q-10 -51 -10 -119q0 -117 47 -158t172 -41q145 0 287 59v-147q-156 -61 -350 -61q-176 0 -259 78.5t-83 250.5zM297 584q236 8 345.5 57t109.5 141q0 55 -37 85t-101 30 q-115 0 -197.5 -88t-119.5 -225zM553 1280l307 227l86 -127l-323 -202z" />
<glyph unicode="&#xea;" horiz-adv-x="976" d="M78 311q0 305 154.5 515t402.5 210q152 0 225.5 -65.5t73.5 -165.5q0 -332 -660 -356q-10 -51 -10 -119q0 -117 47 -158t172 -41q145 0 287 59v-147q-156 -61 -350 -61q-176 0 -259 78.5t-83 250.5zM297 584q236 8 345.5 57t109.5 141q0 55 -37 85t-101 30 q-115 0 -197.5 -88t-119.5 -225zM381 1292l297 191l272 -187l-80 -108l-204 139l-222 -139z" />
<glyph unicode="&#xeb;" horiz-adv-x="976" d="M78 311q0 305 154.5 515t402.5 210q152 0 225.5 -65.5t73.5 -165.5q0 -332 -660 -356q-10 -51 -10 -119q0 -117 47 -158t172 -41q145 0 287 59v-147q-156 -61 -350 -61q-176 0 -259 78.5t-83 250.5zM297 584q236 8 345.5 57t109.5 141q0 55 -37 85t-101 30 q-115 0 -197.5 -88t-119.5 -225zM385 1335q0 49 34 82t81 33q45 0 75.5 -30.5t30.5 -73.5q0 -49 -32.5 -82t-79.5 -33q-45 0 -77 30.5t-32 73.5zM778 1337q0 47 34 80t81 33q45 0 75.5 -30.5t30.5 -73.5q0 -49 -32.5 -82t-79.5 -33q-45 0 -77 30.5t-32 75.5z" />
<glyph unicode="&#xec;" horiz-adv-x="520" d="M78 0l194 1018h181l-195 -1018h-180zM178 1378l98 129l277 -225l-80 -106z" />
<glyph unicode="&#xed;" horiz-adv-x="520" d="M78 0l194 1018h181l-195 -1018h-180zM250 1280l307 227l86 -127l-324 -202z" />
<glyph unicode="&#xee;" horiz-adv-x="520" d="M78 0l194 1018h181l-195 -1018h-180zM131 1292l297 191l272 -187l-79 -108l-203 139l-223 -139z" />
<glyph unicode="&#xef;" horiz-adv-x="520" d="M78 0l194 1018h181l-195 -1018h-180zM115 1335q0 49 32.5 82t79.5 33q45 0 76 -30.5t31 -73.5q0 -49 -33 -82t-80 -33q-45 0 -75.5 30.5t-30.5 73.5zM508 1337q0 47 32.5 80t80.5 33q45 0 75.5 -30.5t30.5 -73.5q0 -49 -32.5 -82t-80.5 -33q-45 0 -75.5 30.5t-30.5 75.5z " />
<glyph unicode="&#xf1;" horiz-adv-x="1153" d="M78 0l102 532l90 486h179q-25 -133 -113 -402h4q82 182 203 302t268 120q137 0 190 -91q34 -58 34 -145q0 -50 -11 -110l-133 -692h-180l125 651q11 57 11 101q0 129 -102 129q-88 0 -186 -112t-165.5 -260.5t-92.5 -279.5l-43 -229h-180zM399 1376q84 78 191 78 q70 0 158 -48t143 -48q84 0 145 59l25 -127q-92 -74 -195 -73q-76 0 -160.5 48t-142.5 48q-76 0 -141 -60z" />
<glyph unicode="&#xf2;" horiz-adv-x="1103" d="M76 344q0 301 169 496.5t421 195.5q193 0 285.5 -98t92.5 -268q0 -303 -178 -495.5t-417 -192.5q-373 0 -373 362zM264 375q0 -236 215 -236q152 0 262.5 145.5t110.5 364.5q0 231 -215 232q-162 0 -267.5 -152.5t-105.5 -353.5zM467 1378l98 129l275 -225l-80 -106z" />
<glyph unicode="&#xf3;" horiz-adv-x="1103" d="M76 344q0 301 169 496.5t421 195.5q193 0 285.5 -98t92.5 -268q0 -303 -178 -495.5t-417 -192.5q-373 0 -373 362zM264 375q0 -236 215 -236q152 0 262.5 145.5t110.5 364.5q0 231 -215 232q-162 0 -267.5 -152.5t-105.5 -353.5zM598 1280l307 227l86 -127l-323 -202z " />
<glyph unicode="&#xf4;" horiz-adv-x="1103" d="M76 344q0 301 169 496.5t421 195.5q193 0 285.5 -98t92.5 -268q0 -303 -178 -495.5t-417 -192.5q-373 0 -373 362zM264 375q0 -236 215 -236q152 0 262.5 145.5t110.5 364.5q0 231 -215 232q-162 0 -267.5 -152.5t-105.5 -353.5zM446 1292l297 191l273 -187l-80 -108 l-205 139l-221 -139z" />
<glyph unicode="&#xf5;" horiz-adv-x="1103" d="M76 344q0 301 169 496.5t421 195.5q193 0 285.5 -98t92.5 -268q0 -303 -178 -495.5t-417 -192.5q-373 0 -373 362zM264 375q0 -236 215 -236q152 0 262.5 145.5t110.5 364.5q0 231 -215 232q-162 0 -267.5 -152.5t-105.5 -353.5zM397 1376q84 78 191 78q70 0 158 -48 t143 -48q84 0 145 59l25 -127q-92 -74 -195 -73q-76 0 -161 48t-142 48q-76 0 -141 -60z" />
<glyph unicode="&#xf6;" horiz-adv-x="1103" d="M76 344q0 301 169 496.5t421 195.5q193 0 285.5 -98t92.5 -268q0 -303 -178 -495.5t-417 -192.5q-373 0 -373 362zM264 375q0 -236 215 -236q152 0 262.5 145.5t110.5 364.5q0 231 -215 232q-162 0 -267.5 -152.5t-105.5 -353.5zM424 1335q0 49 34 82t81 33 q45 0 75.5 -30.5t30.5 -73.5q0 -49 -32.5 -82t-80.5 -33q-45 0 -76.5 30.5t-31.5 73.5zM817 1337q0 47 34 80t81 33q45 0 75.5 -30.5t30.5 -73.5q0 -49 -32.5 -82t-79.5 -33q-45 0 -77 30.5t-32 75.5z" />
<glyph unicode="&#xf7;" horiz-adv-x="1202" d="M94 451v155h1014v-155h-1014zM477 115q0 51 37 87t88 36t87 -36t36 -87.5t-36 -88t-87 -36.5q-53 0 -89 36t-36 89zM477 940q0 51 37 87t88 36t87 -36t36 -87t-36 -88t-87 -37q-53 0 -89 37t-36 88z" />
<glyph unicode="&#xf8;" horiz-adv-x="1103" d="M80 344q0 297 166 494.5t424 197.5q49 0 100 -10l115 205l108 -53l-106 -189q162 -90 162 -319q0 -303 -178.5 -495.5t-417.5 -192.5q-76 0 -125 16l-119 -209l-109 55l113 199q-133 84 -133 301zM258 381q0 -115 51 -172l381 674q-20 4 -67 4q-156 -6 -260.5 -155.5 t-104.5 -350.5zM408 143q37 -11 79 -10h15q152 8 258 156.5t106 359.5q0 129 -71 182z" />
<glyph unicode="&#xf9;" horiz-adv-x="1153" d="M139 326l131 692h183l-125 -651q-11 -58 -12 -102q0 -128 100 -128q131 0 269 220.5t177 430.5l43 230h180l-192 -1018h-180q35 168 112 401h-4q-82 -182 -201.5 -301.5t-267.5 -119.5q-139 0 -191 91q-33 57 -33 143q0 51 11 112zM479 1378l99 129l274 -225l-80 -106z " />
<glyph unicode="&#xfa;" horiz-adv-x="1153" d="M139 326l131 692h183l-125 -651q-11 -58 -12 -102q0 -128 100 -128q131 0 269 220.5t177 430.5l43 230h180l-192 -1018h-180q35 168 112 401h-4q-82 -182 -201.5 -301.5t-267.5 -119.5q-139 0 -191 91q-33 57 -33 143q0 51 11 112zM582 1280l307 227l86 -127l-324 -202z " />
<glyph unicode="&#xfb;" horiz-adv-x="1153" d="M139 326l131 692h183l-125 -651q-11 -58 -12 -102q0 -128 100 -128q131 0 269 220.5t177 430.5l43 230h180l-192 -1018h-180q35 168 112 401h-4q-82 -182 -201.5 -301.5t-267.5 -119.5q-139 0 -191 91q-33 57 -33 143q0 51 11 112zM432 1292l297 191l272 -187l-79 -108 l-205 139l-221 -139z" />
<glyph unicode="&#xfc;" horiz-adv-x="1153" d="M139 326l131 692h183l-125 -651q-11 -58 -12 -102q0 -128 100 -128q131 0 269 220.5t177 430.5l43 230h180l-192 -1018h-180q35 168 112 401h-4q-82 -182 -201.5 -301.5t-267.5 -119.5q-139 0 -191 91q-33 57 -33 143q0 51 11 112zM426 1335q0 49 34 82t81 33 q45 0 75.5 -30.5t30.5 -73.5q0 -49 -32.5 -82t-79.5 -33q-45 0 -77 30.5t-32 73.5zM819 1337q0 47 34 80t81 33q45 0 75.5 -30.5t30.5 -73.5q0 -49 -32.5 -82t-79.5 -33q-45 0 -77 30.5t-32 75.5z" />
<glyph unicode="&#xfd;" horiz-adv-x="997" d="M-246 -506l31 166q59 -20 129 -20q115 0 225 116q115 123 115 326q0 401 -150 936h205q115 -449 115 -799q0 -55 -14 -127h2q236 414 460 967l172 -51q-416 -975 -778 -1344q-180 -184 -368 -184q-87 0 -144 14zM827 1284l308 227l86 -127l-324 -202z" />
<glyph unicode="&#xff;" horiz-adv-x="997" d="M-246 -506l31 166q59 -20 129 -20q115 0 225 116q115 123 115 326q0 401 -150 936h205q115 -449 115 -799q0 -55 -14 -127h2q236 414 460 967l172 -51q-416 -975 -778 -1344q-180 -184 -368 -184q-87 0 -144 14zM299 1335q0 49 34 82t81 33q45 0 75.5 -30.5t30.5 -73.5 q0 -49 -32.5 -82t-79.5 -33q-45 0 -77 30.5t-32 73.5zM692 1337q0 47 34 80t81 33q45 0 75.5 -30.5t30.5 -73.5q0 -49 -32.5 -82t-79.5 -33q-45 0 -77 30.5t-32 75.5z" />
<glyph unicode="&#x152;" horiz-adv-x="1669" d="M102 479q0 383 221.5 648.5t563.5 265.5q53 0 137 -5.5t121 -5.5h555l-29 -155h-512l-84 -439h488l-27 -151h-489l-91 -479h512l-30 -158h-551q-57 0 -152.5 -6t-136.5 -6q-496 -1 -496 491zM299 512q0 -172 82 -266t248 -94q92 0 147 12l203 1057q-66 12 -125 12 q-236 0 -395.5 -214t-159.5 -507z" />
<glyph unicode="&#x153;" horiz-adv-x="1714" d="M76 344q0 299 165 495.5t425 196.5q248 0 327 -194q147 195 379 194q154 0 227.5 -65.5t73.5 -165.5q0 -332 -663 -356q-8 -61 -9 -119q0 -117 48.5 -158t173.5 -41q145 0 286 59v-147q-156 -61 -350 -61q-252 0 -307 194q-160 -195 -403 -194q-373 0 -373 362zM264 375 q0 -236 215 -236q152 0 262.5 145.5t110.5 364.5q0 231 -215 232q-162 0 -267.5 -152.5t-105.5 -353.5zM1036 584q233 8 344 57t111 141q0 53 -38 84t-101 31q-115 0 -197 -88t-119 -225z" />
<glyph unicode="&#x178;" horiz-adv-x="1077" d="M188 1382h193l127 -467q29 -106 57 -239h2q39 68 166 266l287 440h207l-600 -884l-95 -498h-184l94 498zM426 1620q0 49 34 82t81 33q45 0 75.5 -31t30.5 -74q0 -49 -32.5 -81.5t-79.5 -32.5q-45 0 -77 30.5t-32 73.5zM819 1622q0 47 34 80t81 33q45 0 75.5 -31t30.5 -74 q0 -49 -32.5 -81.5t-79.5 -32.5q-45 0 -77 30.5t-32 75.5z" />
<glyph unicode="&#x2c6;" horiz-adv-x="868" d="M250 1292l297 191l272 -187l-80 -108l-204 139l-222 -139z" />
<glyph unicode="&#x2dc;" horiz-adv-x="995" d="M270 1376q84 78 191 78q70 0 158 -48t143 -48q84 0 145 59l25 -127q-92 -74 -195 -73q-76 0 -160.5 48t-142.5 48q-76 0 -141 -60z" />
<glyph unicode="&#x2013;" horiz-adv-x="1024" d="M0 512v160h1024v-160h-1024z" />
<glyph unicode="&#x2014;" horiz-adv-x="2048" d="M0 512v160h2048v-160h-2048z" />
<glyph unicode="&#x2018;" horiz-adv-x="489" d="M230 1153q5 74 80 177.5t212 201.5l70 -80q-158 -132 -158 -231q0 -32 17 -62q18 -28 18 -57q0 -27 -15 -56q-32 -60 -102 -61q-59 0 -93 47q-29 41 -29 102q-1 9 0 19z" />
<glyph unicode="&#x2019;" horiz-adv-x="489" d="M184 1051q157 130 158 229q0 34 -18 63q-17 27 -17 56q0 28 16 58q32 60 101 61q47 0 80 -30t39 -83q1 -12 1 -24q0 -44 -17 -96q-22 -67 -92 -150.5t-183 -163.5z" />
<glyph unicode="&#x201a;" horiz-adv-x="489" d="M-70 -236q158 133 158 234q0 32 -16 61q-18 28 -19 58q0 27 16 55q32 59 101 59q59 0 93 -47q29 -41 30 -101q0 -9 -1 -18q-5 -73 -80 -176.5t-212 -201.5z" />
<glyph unicode="&#x201c;" horiz-adv-x="870" d="M230 1153q5 74 80 177.5t212 201.5l70 -80q-158 -132 -158 -231q0 -32 17 -62q18 -28 18 -57q0 -27 -15 -56q-32 -60 -102 -61q-59 0 -93 47q-29 41 -29 102q-1 9 0 19zM620 1153q5 74 79.5 177.5t211.5 201.5l68 -80q-156 -131 -156 -231q0 -33 17 -62q17 -27 16 -56 q0 -28 -15 -57q-32 -60 -100 -61q-59 0 -93 47q-29 41 -29 102q0 9 1 19z" />
<glyph unicode="&#x201d;" horiz-adv-x="870" d="M184 1051q157 130 158 229q0 34 -18 63q-17 27 -17 56q0 28 16 58q32 60 101 61q47 0 80 -30t39 -83q1 -12 1 -24q0 -44 -17 -96q-22 -67 -92 -150.5t-183 -163.5zM571 1051q157 130 158 229q0 34 -18 63q-17 27 -17 56q0 28 16 58q32 60 101 61q47 0 80 -30t39 -83 q1 -12 1 -24q0 -44 -17 -96q-22 -67 -92 -150.5t-183 -163.5z" />
<glyph unicode="&#x201e;" horiz-adv-x="870" d="M-70 -236q158 133 158 234q0 32 -16 61q-18 28 -19 58q0 27 16 55q32 59 101 59q59 0 93 -47q29 -41 30 -101q0 -9 -1 -18q-5 -73 -80 -176.5t-212 -201.5zM319 -236q157 134 157 233q0 33 -17 62q-17 27 -17 56q0 28 16 57q32 59 101 59q47 0 80 -29.5t39 -82.5 q1 -12 1 -25q0 -44 -16 -95q-22 -67 -92.5 -149.5t-183.5 -162.5z" />
<glyph unicode="&#x2022;" horiz-adv-x="868" d="M188 598q4 102 79 175t177 73q100 0 169 -73q65 -69 65 -164v-11q-4 -102 -79 -175t-175 -73q-102 0 -171 73q-65 69 -65 164v11z" />
<glyph unicode="&#x2026;" horiz-adv-x="1370" d="M47 109q2 51 40 89t91 38q51 0 87 -37q32 -33 32 -80v-10q-2 -51 -41 -89t-90 -38t-87 36q-32 33 -32 80v11zM492 109q4 53 42.5 90t90 37t87.5 -37q32 -33 32 -80q0 -5 -1 -10q-4 -53 -41.5 -90t-89.5 -37q-53 0 -89 36q-32 33 -32 80q1 6 1 11zM981 199q39 37 90 37 t87 -37q32 -33 32 -80v-10q-4 -53 -42 -90t-91 -37q-51 0 -86 37q-33 36 -33 84q0 55 43 96z" />
<glyph unicode="&#x2039;" horiz-adv-x="641" d="M119 504l287 370l129 -79l-236 -293l172 -285l-149 -78z" />
<glyph unicode="&#x203a;" horiz-adv-x="641" d="M119 217l237 293l-172 285l150 77l203 -364l-287 -371z" />
<glyph unicode="&#x2122;" horiz-adv-x="1402" d="M238 1270l20 112h432l-20 -112h-146l-88 -463h-139l90 463h-149zM616 807l197 575h174l29 -315l4 -94l33 86l155 323h172l-20 -575h-139l12 301l8 111l-41 -95l-151 -317h-138l-28 321l-6 91l-21 -76l-111 -336h-129z" />
<glyph unicode="&#xe000;" horiz-adv-x="1070" d="M0 1070h1070v-1070h-1070v1070z" />
<glyph unicode="&#xfb01;" horiz-adv-x="1175" d="M-350 -502l45 156q68 -20 143 -21q113 0 176.5 69t96.5 243l176 929h-205l29 144h206l7 45q72 446 540 446q137 0 283 -39l-64 -151q-111 39 -231 39q-293 0 -344 -275l-12 -65h612l-195 -1018h-178l166 874h-434l-174 -925q-47 -246 -162 -357.5t-305 -111.5 q-92 0 -176 18z" />
<glyph unicode="&#xfb02;" horiz-adv-x="1175" d="M-350 -502l45 156q68 -20 143 -21q113 0 176.5 69t96.5 243l176 929h-205l29 144h204l21 110q72 381 508 381q178 0 352 -30l-281 -1479h-180l256 1343q-92 16 -166 17q-135 0 -210.5 -58.5t-98.5 -181.5l-20 -102h270l-31 -144h-268l-174 -925q-47 -246 -162 -357.5 t-305 -111.5q-92 0 -176 18z" />
<glyph unicode="&#xfb03;" horiz-adv-x="1908" d="M-352 -502l45 156q68 -20 143 -21q113 0 176.5 69t96.5 243l178 929h-207l31 144h202l15 72q74 418 460 417q84 0 170 -18l-45 -152q-76 20 -143 21q-113 0 -175.5 -63.5t-86.5 -207.5l-12 -69h276l-31 -144h-274l-176 -925q-47 -246 -162 -357.5t-305 -111.5 q-94 0 -176 18zM342 -502l45 156q68 -20 143 -21q113 0 176.5 69t96.5 243l178 929h-207l31 144h203l14 72q74 418 461 417q84 0 170 -18l-45 -152q-76 20 -144 21q-113 0 -175 -63.5t-87 -207.5l-12 -69h276l-30 -144h-275l-176 -925q-47 -246 -161.5 -357.5t-305.5 -111.5 q-94 0 -176 18zM1466 0l195 1018h180l-194 -1018h-181zM1686 1303q2 51 39.5 86.5t89.5 35.5q49 0 81 -33q31 -32 31 -76q0 -55 -41 -93q-39 -37 -88 -37q-51 0 -84 35q-29 31 -29 71q1 6 1 11z" />
<glyph unicode="&#xfb04;" horiz-adv-x="1908" d="M-352 -502l45 156q68 -20 143 -21q113 0 176.5 69t96.5 243l178 929h-207l31 144h202l15 72q74 418 460 417q84 0 170 -18l-45 -152q-76 20 -143 21q-113 0 -175.5 -63.5t-86.5 -207.5l-12 -69h276l-31 -144h-274l-176 -925q-47 -246 -162 -357.5t-305 -111.5 q-94 0 -176 18zM342 -502l45 156q68 -20 143 -21q113 0 176.5 69t96.5 243l178 929h-207l31 144h203l14 72q74 418 461 417q84 0 170 -18l-45 -152q-76 20 -144 21q-113 0 -175 -63.5t-87 -207.5l-12 -69h276l-30 -144h-275l-176 -925q-47 -246 -161.5 -357.5t-305.5 -111.5 q-94 0 -176 18zM1466 0l285 1495h180l-284 -1495h-181z" />
</font>
</defs>
</svg>
